<svg xmlns="http://www.w3.org/2000/svg" viewBox="0 -0.5 256 256" shape-rendering="crispEdges">
<metadata>Made with Pixels to Svg https://codepen.io/shshaw/pen/XbxvNj</metadata>
<path stroke="#303a37" d="M64 0h16M176 0h16M64 1h16M176 1h16M64 2h16M176 2h16M64 3h16M176 3h16M64 4h16M176 4h16M64 5h16M176 5h16M64 6h16M176 6h16M64 7h16M176 7h16M64 8h16M176 8h16M64 9h16M176 9h16M64 10h16M176 10h16M64 11h16M176 11h16M64 12h16M176 12h16M64 13h16M176 13h16M64 14h16M176 14h16M64 15h16M176 15h16M48 16h16M192 16h16M48 17h16M192 17h16M48 18h16M192 18h16M48 19h16M192 19h16M48 20h16M192 20h16M48 21h16M192 21h16M48 22h16M192 22h16M48 23h16M192 23h16M48 24h16M192 24h16M48 25h16M192 25h16M48 26h16M192 26h16M48 27h16M192 27h16M48 28h16M192 28h16M48 29h16M192 29h16M48 30h16M192 30h16M48 31h16M192 31h16M32 32h16M208 32h16M32 33h16M208 33h16M32 34h16M208 34h16M32 35h16M208 35h16M32 36h16M208 36h16M32 37h16M208 37h16M32 38h16M208 38h16M32 39h16M208 39h16M32 40h16M208 40h16M32 41h16M208 41h16M32 42h16M208 42h16M32 43h16M208 43h16M32 44h16M208 44h16M32 45h16M208 45h16M32 46h16M208 46h16M32 47h16M208 47h16M32 48h16M208 48h16M32 49h16M208 49h16M32 50h16M208 50h16M32 51h16M208 51h16M32 52h16M208 52h16M32 53h16M208 53h16M32 54h16M208 54h16M32 55h16M208 55h16M32 56h16M208 56h16M32 57h16M208 57h16M32 58h16M208 58h16M32 59h16M208 59h16M32 60h16M208 60h16M32 61h16M208 61h16M32 62h16M208 62h16M32 63h16M208 63h16M32 64h16M208 64h16M32 65h16M208 65h16M32 66h16M208 66h16M32 67h16M208 67h16M32 68h16M208 68h16M32 69h16M208 69h16M32 70h16M208 70h16M32 71h16M208 71h16M32 72h16M208 72h16M32 73h16M208 73h16M32 74h16M208 74h16M32 75h16M208 75h16M32 76h16M208 76h16M32 77h16M208 77h16M32 78h16M208 78h16M32 79h16M208 79h16M192 80h16M192 81h16M192 82h16M192 83h16M192 84h16M192 85h16M192 86h16M192 87h16M192 88h16M192 89h16M192 90h16M192 91h16M192 92h16M192 93h16M192 94h16M192 95h16M192 96h16M192 97h16M192 98h16M192 99h16M192 100h16M192 101h16M192 102h16M192 103h16M192 104h16M192 105h16M192 106h16M192 107h16M192 108h16M192 109h16M192 110h16M192 111h16M32 160h16M32 161h16M32 162h16M32 163h16M32 164h16M32 165h16M32 166h16M32 167h16M32 168h16M32 169h16M32 170h16M32 171h16M32 172h16M32 173h16M32 174h16M32 175h16M32 176h16M208 176h16M32 177h16M208 177h16M32 178h16M208 178h16M32 179h16M208 179h16M32 180h16M208 180h16M32 181h16M208 181h16M32 182h16M208 182h16M32 183h16M208 183h16M32 184h16M208 184h16M32 185h16M208 185h16M32 186h16M208 186h16M32 187h16M208 187h16M32 188h16M208 188h16M32 189h16M208 189h16M32 190h16M208 190h16M32 191h16M208 191h16M32 192h16M208 192h16M32 193h16M208 193h16M32 194h16M208 194h16M32 195h16M208 195h16M32 196h16M208 196h16M32 197h16M208 197h16M32 198h16M208 198h16M32 199h16M208 199h16M32 200h16M208 200h16M32 201h16M208 201h16M32 202h16M208 202h16M32 203h16M208 203h16M32 204h16M208 204h16M32 205h16M208 205h16M32 206h16M208 206h16M32 207h16M208 207h16M32 208h16M208 208h16M32 209h16M208 209h16M32 210h16M208 210h16M32 211h16M208 211h16M32 212h16M208 212h16M32 213h16M208 213h16M32 214h16M208 214h16M32 215h16M208 215h16M32 216h16M208 216h16M32 217h16M208 217h16M32 218h16M208 218h16M32 219h16M208 219h16M32 220h16M208 220h16M32 221h16M208 221h16M32 222h16M208 222h16M32 223h16M208 223h16M16 224h16M96 224h48M176 224h32M16 225h16M96 225h48M176 225h32M16 226h16M96 226h48M176 226h32M16 227h16M96 227h48M176 227h32M16 228h16M96 228h48M176 228h32M16 229h16M96 229h48M176 229h32M16 230h16M96 230h48M176 230h32M16 231h16M96 231h48M176 231h32M16 232h16M96 232h48M176 232h32M16 233h16M96 233h48M176 233h32M16 234h16M96 234h48M176 234h32M16 235h16M96 235h48M176 235h32M16 236h16M96 236h48M176 236h32M16 237h16M96 237h48M176 237h32M16 238h16M96 238h48M176 238h32M16 239h16M96 239h48M176 239h32M32 240h32M128 240h16M192 240h16M32 241h32M128 241h16M192 241h16M32 242h32M128 242h16M192 242h16M32 243h32M128 243h16M192 243h16M32 244h32M128 244h16M192 244h16M32 245h32M128 245h16M192 245h16M32 246h32M128 246h16M192 246h16M32 247h32M128 247h16M192 247h16M32 248h32M128 248h16M192 248h16M32 249h32M128 249h16M192 249h16M32 250h32M128 250h16M192 250h16M32 251h32M128 251h16M192 251h16M32 252h32M128 252h16M192 252h16M32 253h32M128 253h16M192 253h16M32 254h32M128 254h16M192 254h16M32 255h32M128 255h16M192 255h16" />
<path stroke="#5e5f54" d="M80 0h96M80 1h96M80 2h96M80 3h96M80 4h96M80 5h96M80 6h96M80 7h96M80 8h96M80 9h96M80 10h96M80 11h96M80 12h96M80 13h96M80 14h96M80 15h96M64 16h64M160 16h32M64 17h64M160 17h32M64 18h64M160 18h32M64 19h64M160 19h32M64 20h64M160 20h32M64 21h64M160 21h32M64 22h64M160 22h32M64 23h64M160 23h32M64 24h64M160 24h32M64 25h64M160 25h32M64 26h64M160 26h32M64 27h64M160 27h32M64 28h64M160 28h32M64 29h64M160 29h32M64 30h64M160 30h32M64 31h64M160 31h32M48 32h64M176 32h32M48 33h64M176 33h32M48 34h64M176 34h32M48 35h64M176 35h32M48 36h64M176 36h32M48 37h64M176 37h32M48 38h64M176 38h32M48 39h64M176 39h32M48 40h64M176 40h32M48 41h64M176 41h32M48 42h64M176 42h32M48 43h64M176 43h32M48 44h64M176 44h32M48 45h64M176 45h32M48 46h64M176 46h32M48 47h64M176 47h32M48 48h80M160 48h48M48 49h80M160 49h48M48 50h80M160 50h48M48 51h80M160 51h48M48 52h80M160 52h48M48 53h80M160 53h48M48 54h80M160 54h48M48 55h80M160 55h48M48 56h80M160 56h48M48 57h80M160 57h48M48 58h80M160 58h48M48 59h80M160 59h48M48 60h80M160 60h48M48 61h80M160 61h48M48 62h80M160 62h48M48 63h80M160 63h48M48 64h160M48 65h160M48 66h160M48 67h160M48 68h160M48 69h160M48 70h160M48 71h160M48 72h160M48 73h160M48 74h160M48 75h160M48 76h160M48 77h160M48 78h160M48 79h160M96 176h16M160 176h16M96 177h16M160 177h16M96 178h16M160 178h16M96 179h16M160 179h16M96 180h16M160 180h16M96 181h16M160 181h16M96 182h16M160 182h16M96 183h16M160 183h16M96 184h16M160 184h16M96 185h16M160 185h16M96 186h16M160 186h16M96 187h16M160 187h16M96 188h16M160 188h16M96 189h16M160 189h16M96 190h16M160 190h16M96 191h16M160 191h16M80 192h96M80 193h96M80 194h96M80 195h96M80 196h96M80 197h96M80 198h96M80 199h96M80 200h96M80 201h96M80 202h96M80 203h96M80 204h96M80 205h96M80 206h96M80 207h96M80 208h96M80 209h96M80 210h96M80 211h96M80 212h96M80 213h96M80 214h96M80 215h96M80 216h96M80 217h96M80 218h96M80 219h96M80 220h96M80 221h96M80 222h96M80 223h96M80 224h16M144 224h32M80 225h16M144 225h32M80 226h16M144 226h32M80 227h16M144 227h32M80 228h16M144 228h32M80 229h16M144 229h32M80 230h16M144 230h32M80 231h16M144 231h32M80 232h16M144 232h32M80 233h16M144 233h32M80 234h16M144 234h32M80 235h16M144 235h32M80 236h16M144 236h32M80 237h16M144 237h32M80 238h16M144 238h32M80 239h16M144 239h32M64 240h48M144 240h48M64 241h48M144 241h48M64 242h48M144 242h48M64 243h48M144 243h48M64 244h48M144 244h48M64 245h48M144 245h48M64 246h48M144 246h48M64 247h48M144 247h48M64 248h48M144 248h48M64 249h48M144 249h48M64 250h48M144 250h48M64 251h48M144 251h48M64 252h48M144 252h48M64 253h48M144 253h48M64 254h48M144 254h48M64 255h48M144 255h48" />
<path stroke="#ffe589" d="M128 16h16M128 17h16M128 18h16M128 19h16M128 20h16M128 21h16M128 22h16M128 23h16M128 24h16M128 25h16M128 26h16M128 27h16M128 28h16M128 29h16M128 30h16M128 31h16M112 32h48M112 33h48M112 34h48M112 35h48M112 36h48M112 37h48M112 38h48M112 39h48M112 40h48M112 41h48M112 42h48M112 43h48M112 44h48M112 45h48M112 46h48M112 47h48M128 48h32M128 49h32M128 50h32M128 51h32M128 52h32M128 53h32M128 54h32M128 55h32M128 56h32M128 57h32M128 58h32M128 59h32M128 60h32M128 61h32M128 62h32M128 63h32" />
<path stroke="#ffffff" d="M144 16h16M144 17h16M144 18h16M144 19h16M144 20h16M144 21h16M144 22h16M144 23h16M144 24h16M144 25h16M144 26h16M144 27h16M144 28h16M144 29h16M144 30h16M144 31h16M160 32h16M160 33h16M160 34h16M160 35h16M160 36h16M160 37h16M160 38h16M160 39h16M160 40h16M160 41h16M160 42h16M160 43h16M160 44h16M160 45h16M160 46h16M160 47h16" />
<path stroke="#642d12" d="M32 80h16M32 81h16M32 82h16M32 83h16M32 84h16M32 85h16M32 86h16M32 87h16M32 88h16M32 89h16M32 90h16M32 91h16M32 92h16M32 93h16M32 94h16M32 95h16M32 96h16M32 97h16M32 98h16M32 99h16M32 100h16M32 101h16M32 102h16M32 103h16M32 104h16M32 105h16M32 106h16M32 107h16M32 108h16M32 109h16M32 110h16M32 111h16M32 112h16M192 112h16M32 113h16M192 113h16M32 114h16M192 114h16M32 115h16M192 115h16M32 116h16M192 116h16M32 117h16M192 117h16M32 118h16M192 118h16M32 119h16M192 119h16M32 120h16M192 120h16M32 121h16M192 121h16M32 122h16M192 122h16M32 123h16M192 123h16M32 124h16M192 124h16M32 125h16M192 125h16M32 126h16M192 126h16M32 127h16M192 127h16M48 128h16M208 128h16M48 129h16M208 129h16M48 130h16M208 130h16M48 131h16M208 131h16M48 132h16M208 132h16M48 133h16M208 133h16M48 134h16M208 134h16M48 135h16M208 135h16M48 136h16M208 136h16M48 137h16M208 137h16M48 138h16M208 138h16M48 139h16M208 139h16M48 140h16M208 140h16M48 141h16M208 141h16M48 142h16M208 142h16M48 143h16M208 143h16M32 144h16M208 144h16M32 145h16M208 145h16M32 146h16M208 146h16M32 147h16M208 147h16M32 148h16M208 148h16M32 149h16M208 149h16M32 150h16M208 150h16M32 151h16M208 151h16M32 152h16M208 152h16M32 153h16M208 153h16M32 154h16M208 154h16M32 155h16M208 155h16M32 156h16M208 156h16M32 157h16M208 157h16M32 158h16M208 158h16M32 159h16M208 159h16M192 160h16M192 161h16M192 162h16M192 163h16M192 164h16M192 165h16M192 166h16M192 167h16M192 168h16M192 169h16M192 170h16M192 171h16M192 172h16M192 173h16M192 174h16M192 175h16" />
<path stroke="#9b451c" d="M48 80h32M48 81h32M48 82h32M48 83h32M48 84h32M48 85h32M48 86h32M48 87h32M48 88h32M48 89h32M48 90h32M48 91h32M48 92h32M48 93h32M48 94h32M48 95h32M48 96h32M48 97h32M48 98h32M48 99h32M48 100h32M48 101h32M48 102h32M48 103h32M48 104h32M48 105h32M48 106h32M48 107h32M48 108h32M48 109h32M48 110h32M48 111h32M48 112h80M160 112h32M48 113h80M160 113h32M48 114h80M160 114h32M48 115h80M160 115h32M48 116h80M160 116h32M48 117h80M160 117h32M48 118h80M160 118h32M48 119h80M160 119h32M48 120h80M160 120h32M48 121h80M160 121h32M48 122h80M160 122h32M48 123h80M160 123h32M48 124h80M160 124h32M48 125h80M160 125h32M48 126h80M160 126h32M48 127h80M160 127h32M64 128h144M64 129h144M64 130h144M64 131h144M64 132h144M64 133h144M64 134h144M64 135h144M64 136h144M64 137h144M64 138h144M64 139h144M64 140h144M64 141h144M64 142h144M64 143h144M48 144h160M48 145h160M48 146h160M48 147h160M48 148h160M48 149h160M48 150h160M48 151h160M48 152h160M48 153h160M48 154h160M48 155h160M48 156h160M48 157h160M48 158h160M48 159h160M80 160h96M80 161h96M80 162h96M80 163h96M80 164h96M80 165h96M80 166h96M80 167h96M80 168h96M80 169h96M80 170h96M80 171h96M80 172h96M80 173h96M80 174h96M80 175h96" />
<path stroke="#e89668" d="M80 80h16M112 80h16M176 80h16M80 81h16M112 81h16M176 81h16M80 82h16M112 82h16M176 82h16M80 83h16M112 83h16M176 83h16M80 84h16M112 84h16M176 84h16M80 85h16M112 85h16M176 85h16M80 86h16M112 86h16M176 86h16M80 87h16M112 87h16M176 87h16M80 88h16M112 88h16M176 88h16M80 89h16M112 89h16M176 89h16M80 90h16M112 90h16M176 90h16M80 91h16M112 91h16M176 91h16M80 92h16M112 92h16M176 92h16M80 93h16M112 93h16M176 93h16M80 94h16M112 94h16M176 94h16M80 95h16M112 95h16M176 95h16M160 96h32M160 97h32M160 98h32M160 99h32M160 100h32M160 101h32M160 102h32M160 103h32M160 104h32M160 105h32M160 106h32M160 107h32M160 108h32M160 109h32M160 110h32M160 111h32" />
<path stroke="#000000" d="M96 80h16M160 80h16M96 81h16M160 81h16M96 82h16M160 82h16M96 83h16M160 83h16M96 84h16M160 84h16M96 85h16M160 85h16M96 86h16M160 86h16M96 87h16M160 87h16M96 88h16M160 88h16M96 89h16M160 89h16M96 90h16M160 90h16M96 91h16M160 91h16M96 92h16M160 92h16M96 93h16M160 93h16M96 94h16M160 94h16M96 95h16M160 95h16" />
<path stroke="#fabe89" d="M128 80h32M128 81h32M128 82h32M128 83h32M128 84h32M128 85h32M128 86h32M128 87h32M128 88h32M128 89h32M128 90h32M128 91h32M128 92h32M128 93h32M128 94h32M128 95h32M80 96h80M80 97h80M80 98h80M80 99h80M80 100h80M80 101h80M80 102h80M80 103h80M80 104h80M80 105h80M80 106h80M80 107h80M80 108h80M80 109h80M80 110h80M80 111h80M128 112h32M128 113h32M128 114h32M128 115h32M128 116h32M128 117h32M128 118h32M128 119h32M128 120h32M128 121h32M128 122h32M128 123h32M128 124h32M128 125h32M128 126h32M128 127h32M176 192h32M176 193h32M176 194h32M176 195h32M176 196h32M176 197h32M176 198h32M176 199h32M176 200h32M176 201h32M176 202h32M176 203h32M176 204h32M176 205h32M176 206h32M176 207h32M48 208h32M176 208h32M48 209h32M176 209h32M48 210h32M176 210h32M48 211h32M176 211h32M48 212h32M176 212h32M48 213h32M176 213h32M48 214h32M176 214h32M48 215h32M176 215h32M48 216h32M176 216h32M48 217h32M176 217h32M48 218h32M176 218h32M48 219h32M176 219h32M48 220h32M176 220h32M48 221h32M176 221h32M48 222h32M176 222h32M48 223h32M176 223h32M32 224h48M32 225h48M32 226h48M32 227h48M32 228h48M32 229h48M32 230h48M32 231h48M32 232h48M32 233h48M32 234h48M32 235h48M32 236h48M32 237h48M32 238h48M32 239h48" />
<path stroke="#a6a2a2" d="M48 160h32M176 160h16M48 161h32M176 161h16M48 162h32M176 162h16M48 163h32M176 163h16M48 164h32M176 164h16M48 165h32M176 165h16M48 166h32M176 166h16M48 167h32M176 167h16M48 168h32M176 168h16M48 169h32M176 169h16M48 170h32M176 170h16M48 171h32M176 171h16M48 172h32M176 172h16M48 173h32M176 173h16M48 174h32M176 174h16M48 175h32M176 175h16M48 176h48M112 176h48M176 176h32M48 177h48M112 177h48M176 177h32M48 178h48M112 178h48M176 178h32M48 179h48M112 179h48M176 179h32M48 180h48M112 180h48M176 180h32M48 181h48M112 181h48M176 181h32M48 182h48M112 182h48M176 182h32M48 183h48M112 183h48M176 183h32M48 184h48M112 184h48M176 184h32M48 185h48M112 185h48M176 185h32M48 186h48M112 186h48M176 186h32M48 187h48M112 187h48M176 187h32M48 188h48M112 188h48M176 188h32M48 189h48M112 189h48M176 189h32M48 190h48M112 190h48M176 190h32M48 191h48M112 191h48M176 191h32M48 192h32M48 193h32M48 194h32M48 195h32M48 196h32M48 197h32M48 198h32M48 199h32M48 200h32M48 201h32M48 202h32M48 203h32M48 204h32M48 205h32M48 206h32M48 207h32" />
</svg>